<svg width="20" height="20" viewBox="0 0 20 20" fill="none" xmlns="http://www.w3.org/2000/svg"><path d="M13.75 0h-7.5A6.25 6.25 0 000 6.25v7.5C0 17.2 2.8 20 6.25 20h7.5C17.2 20 20 17.2 20 13.75v-7.5C20 2.8 17.2 0 13.75 0zm4.38 13.75a4.38 4.38 0 01-4.38 4.38h-7.5a4.38 4.38 0 01-4.38-4.38v-7.5a4.38 4.38 0 014.38-4.38h7.5a4.38 4.38 0 014.38 4.38v7.5z" fill="#fff"/><path d="M10 5a5 5 0 100 10 5 5 0 000-10zm0 8.13a3.13 3.13 0 110-6.26 3.13 3.13 0 010 6.25zM15.38 5.3a.67.67 0 100-1.34.67.67 0 000 1.33z" fill="#fff"/></svg>