<svg width="134" height="66" viewBox="0 0 134 66" fill="#fff" xmlns="http://www.w3.org/2000/svg"><path d="M1.4 37V12.4h3V23h3.2v3H4.5V37h-3zm8-10.9v-3h3.1V12.4h3.1V37h-3V26.1H9.3zm9 5.7v-8.7c0-1 .4-2.2 1.4-3.2a6 6 0 014.6-2v3c-1.4 0-2.3.5-2.9 1.7l-.2 1v7.7c0 1 .4 1.6 1.2 2.3.5.4 1.2.6 1.9.6V37c-2.2 0-4-.9-5.2-2.7-.6-.9-.8-1.7-.8-2.5zm7.5 5.2v-2.8c1.3 0 2.1-.6 2.7-1.7l.3-1v-7.9c0-1-.4-1.7-1.3-2.3-.5-.3-1-.5-1.7-.5V18c2.1 0 3.8.9 5 2.6.6.9.8 1.7.8 2.5v8.7a5 5 0 01-1.4 3.3 5.8 5.8 0 01-4.4 2zm8.5-5V18h3v13.6c0 .8.4 1.5 1.3 2.1.5.3 1.2.5 1.8.5v3a6 6 0 01-5.2-2.7c-.6-.9-.9-1.7-.9-2.6zm7.7 5.2v-3c1.2 0 2.2-.5 2.8-1.5.2-.4.3-.7.3-1.1V18h3v14c0 1-.5 2.1-1.5 3.2a6.1 6.1 0 01-4.6 2zm8.1-5.2l2.8-.5c0 1 .5 1.9 1.6 2.5.6.2 1 .4 1.6.4v2.8c-2.3 0-4-.8-5.1-2.5-.6-.9-.9-1.8-.9-2.7zm.2-8.6a5 5 0 012.9-4.8 6 6 0 012.8-.7v2.7c-1 0-1.9.5-2.5 1.4-.3.4-.4.9-.4 1.4 0 .7.5 1.3 1.7 1.8.9.4 2.6.9 5.2 1.5 1.6.3 2.7 1 3.4 2.3.3.7.5 1.4.5 2.2 0 2.3-.9 4-2.7 5-1 .7-2.2 1-3.6 1v-2.8c1 0 2-.4 2.7-1.1.5-.6.8-1.2.8-2 0-.9-1-1.6-2.8-2.2a56.2 56.2 0 00-4.6-1.2c-1.8-.7-3-1.8-3.3-3.2l-.1-1.3zm7.3-2.7v-2.8c2 0 3.6.7 4.8 2.2.8 1 1.2 2 1.2 3l-2.8.5c0-1.3-.7-2.2-2-2.7-.5-.2-.9-.2-1.2-.2zM66 31.8v-8.7c0-1.1.5-2.2 1.5-3.2a6.1 6.1 0 014.5-2v2.9a3 3 0 00-2.7 1.4c-.2.5-.4.8-.4 1.2v2.4h8v-2.4c0-1-.6-1.8-1.7-2.3-.5-.3-1-.4-1.5-.4V18c1.6 0 3 .6 4.3 1.7 1 1 1.6 2.1 1.6 3.3v5.6H69v3.2c0 .7.4 1.3 1.2 1.8.6.4 1.2.7 2 .7V37c-2.2 0-3.9-.9-5.1-2.6-.7-1-1-1.8-1-2.6zm7.7 5.2v-2.8c1.4 0 2.5-.6 3.2-1.8l.3-.7 2.5.9a5.6 5.6 0 01-3 3.6c-.9.5-2 .8-3 .8zm7.7-24.6h3l6.3 21.4-1 3.2h-1.2l-7.1-24.6zm8.6 13l4.3-13h3.1A1251.6 1251.6 0 0191.8 30h-.4l-1.3-4.7zm9.1 4.7V18.6a6 6 0 011.6-3.8 6.8 6.8 0 015.3-2.6v3c-1.4 0-2.5.8-3.3 2.3-.3.6-.5 1.1-.5 1.6v11c0 1.5.7 2.7 2.2 3.5.6.3 1.1.5 1.6.5v3c-1.3 0-2.7-.4-4-1.4a6.7 6.7 0 01-2.9-5.6zm8.8 7v-3c.9 0 1.7-.3 2.5-1 1-.9 1.4-1.8 1.4-3v-11a4 4 0 00-1.1-2.6 3.8 3.8 0 00-2.8-1.2v-3c2.4 0 4.3 1 5.7 3a5.8 5.8 0 011.3 3.3V30c0 2.6-1.2 4.6-3.5 6a7 7 0 01-3.5 1zm9.8-.1h3V12.4h-3V37zm4.8-11h3.8c3 0 5-1.2 5.8-3.5.3-1 .4-2 .4-3.4 0-4.2-1.9-6.5-5.8-6.7h-4.2v3h3.3c2.4 0 3.6 1.3 3.6 3.7 0 2.6-1.2 3.9-3.5 4h-3.4V26zM2.9 58.6L.3 54.5h1l2.3 3.8h1.6v-3.8h1v3.8h1.5l2.3-3.8h1l-2.6 4 2.9 4.5h-1l-2.5-4H6.1v4h-.9v-4H3.5L1 63H0L3 58.6zm11.8 3.1l5.3-7.2h.7V63h-.9v-7.1L14.6 63H14v-8.5h.8v7.2zm11.5-5a29 29 0 01-1 4.9c-.1.5-.4.9-.7 1.1-.3.2-.7.4-1 .4l-.2-.8.4-.1.5-.3.3-.7c.2-.2.3-.6.4-1l.3-1.5.2-2 .2-2.2h4.3V63h-.8v-7.8h-2.8v1.5zM37 63.1a3.7 3.7 0 01-3-1.4 4.5 4.5 0 01-1-3 4.5 4.5 0 011.1-3 4 4 0 011.3-1c.5-.2 1-.3 1.6-.3.6 0 1.1.1 1.6.4.5.3 1 .6 1.2 1a4.5 4.5 0 011.2 3c0 .5-.2 1-.4 1.6-.2.5-.4 1-.8 1.4l-1.3 1-1.5.3zm-3.2-4.4a4 4 0 00.9 2.5c.3.4.6.6 1 .8.4.2.8.3 1.3.3.4 0 .9-.1 1.3-.3l1-.8.6-1.2a3.8 3.8 0 00-.7-3.7c-.3-.4-.6-.6-1-.8l-1.2-.3c-.5 0-1 0-1.4.3a3 3 0 00-1 .8 3.9 3.9 0 00-.8 2.4zM49.3 52c0 .4-.2.7-.5 1-.3.2-.8.3-1.3.3-.6 0-1-.1-1.3-.4-.3-.2-.5-.5-.5-.9h.5l.1.3.3.3.4.1.5.1c.3 0 .6 0 .9-.2l.4-.6h.5zm-4.5 9.7l5.3-7.2h.7V63H50v-7.1L44.8 63H44v-8.5h.8v7.2zm15-3.4H61l2.8-3.8h1l-3 4L65 63h-1l-3-4h-1.4v4H59v-8.5h.8v3.8zM70.6 63a3.7 3.7 0 01-3-1.4 4.5 4.5 0 01-1-3 4.5 4.5 0 011.1-3 4 4 0 011.3-1c.5-.2 1-.3 1.6-.3.6 0 1.1.1 1.6.4a4.5 4.5 0 012.4 4c0 .5-.2 1-.4 1.6-.2.5-.4 1-.8 1.4l-1.3 1-1.5.3zm-3.2-4.4a4 4 0 00.9 2.5c.3.4.6.6 1 .8.4.2.8.3 1.3.3.4 0 .9-.1 1.3-.3l1-.8.6-1.2a3.8 3.8 0 00-.7-3.7c-.3-.4-.6-.6-1-.8l-1.2-.3c-.5 0-1 0-1.4.3a3 3 0 00-1 .8 3.9 3.9 0 00-.8 2.4zM85.2 63v-7l-3 5.4h-.6l-3-5.4v7h-1v-8.5h1l3.3 5.8 3.3-5.8h.9V63h-.9zm4.5-8.5h6.6V63h-.9v-7.8h-4.9V63h-.8v-8.5zm12 2.2a29 29 0 01-.8 4.9c-.3.5-.5.9-.8 1.1-.3.2-.7.4-1.1.4l-.2-.8.5-.1.4-.3.4-.7.4-1 .2-1.5.3-2 .1-2.2h4.4V63h-.9v-7.8H102l-.1 1.5zm13.1 5.6v.7h-5.7v-8.5h5.6v.7H110v3.1h4.2v.7h-4.2v3.3h5zm3.9-4h1.3l2.8-3.8h1l-3 4L124 63h-1l-3-4h-1.3v4h-.8v-8.5h.8v3.8zm7 .4a4.6 4.6 0 011-3 4 4 0 014.9-.8c.5.4 1 .8 1.2 1.4l-.7.4-.5-.7a2.7 2.7 0 00-1.3-.7 3.1 3.1 0 00-2 .2 3.2 3.2 0 00-1.6 2 4 4 0 000 2.6l.7 1.1c.2.4.6.6 1 .8l1.2.3h.8a3 3 0 001.4-.8l.5-.8.7.4-.6.8a3.9 3.9 0 01-1.8 1 4 4 0 01-1 .2c-.6 0-1.1-.2-1.6-.4a4.3 4.3 0 01-2.1-2.4c-.2-.5-.3-1-.3-1.6z" /></svg>